<svg width="24" height="24" viewBox="0 0 24 24" fill="none" xmlns="http://www.w3.org/2000/svg">
<path d="M23.9218 8.74505C23.9218 5.67701 21.4267 3.18101 18.3598 3.18101C18.2266 3.18101 18.092 3.18602 17.9568 3.19612C16.6371 1.21188 14.4012 0 12 0C9.59885 0 7.36297 1.21212 6.04322 3.19612C5.90802 3.18602 5.77348 3.18101 5.64022 3.18101C2.57324 3.18101 0.078125 5.67701 0.078125 8.74505C0.078125 11.544 2.15522 13.8657 4.84831 14.2515V21.9409C4.84831 23.0764 5.77194 24 6.9073 24H17.0927C18.2281 24 19.1517 23.0763 19.1517 21.9409V14.2515C21.8448 13.8657 23.9218 11.5439 23.9218 8.74505ZM17.0927 22.4161H6.90738C6.64992 22.4161 6.43223 22.1985 6.43223 21.9408V14.2522C7.20814 14.1423 7.94479 13.8706 8.60928 13.4482C9.62851 13.9994 10.7877 14.3088 12 14.3088C13.2123 14.3088 14.3714 13.9994 15.3906 13.4482C16.0553 13.8706 16.792 14.1423 17.5678 14.2522V21.9408C17.5678 22.1985 17.3502 22.4161 17.0927 22.4161ZM18.3598 12.7249C17.8267 12.7249 17.3114 12.6208 16.8325 12.4206C17.7963 11.5371 18.5249 10.3886 18.8907 9.06877C19.0075 8.64727 18.7605 8.21083 18.3391 8.09398C17.9175 7.97721 17.4812 8.22424 17.3643 8.64566C16.6987 11.0475 14.4928 12.7249 12 12.7249C9.50713 12.7249 7.30132 11.0475 6.6357 8.64566C6.51893 8.22416 6.08273 7.97721 5.66091 8.09398C5.23942 8.21075 4.99247 8.64727 5.10924 9.06877C5.47497 10.3886 6.20362 11.5371 7.16742 12.4206C6.68855 12.6208 6.17323 12.7249 5.64022 12.7249C3.44661 12.7249 1.66204 10.9396 1.66204 8.74505C1.66204 6.55046 3.44669 4.76493 5.64022 4.76493C5.86196 4.76493 6.09025 4.78481 6.31877 4.82392C6.64863 4.88016 6.97897 4.72315 7.14301 4.43111C8.12928 2.67491 9.99037 1.58392 11.9999 1.58392C14.0094 1.58392 15.8705 2.67499 16.857 4.43119C17.0209 4.72323 17.3511 4.88024 17.6812 4.82392C17.9097 4.78481 18.138 4.76493 18.3597 4.76493C20.5532 4.76493 22.3378 6.55046 22.3378 8.74505C22.338 10.9396 20.5534 12.7249 18.3598 12.7249Z" fill="#A6631B"/>
</svg>
