<svg width="26" height="26" viewBox="0 0 26 26" fill="none" xmlns="http://www.w3.org/2000/svg">
<path d="M13 0C7.62288 0 3.25 4.37288 3.25 9.75C3.25 16.5084 12.051 25.3874 12.4247 25.7628C12.584 25.9204 12.792 26 13 26C13.208 26 13.416 25.9204 13.5753 25.7628C13.949 25.3874 22.75 16.5084 22.75 9.75C22.75 4.37288 18.3771 0 13 0ZM13 24.0126C11.0598 21.9359 4.875 14.9126 4.875 9.75C4.875 5.26988 8.51988 1.625 13 1.625C17.4801 1.625 21.125 5.26988 21.125 9.75C21.125 14.9078 14.9403 21.9359 13 24.0126Z" fill="#A6631B"/>
<path d="M13 4.875C10.3122 4.875 8.125 7.06225 8.125 9.75C8.125 12.4377 10.3122 14.625 13 14.625C15.6877 14.625 17.875 12.4377 17.875 9.75C17.875 7.06225 15.6877 4.875 13 4.875ZM13 13C11.2076 13 9.75 11.5424 9.75 9.75C9.75 7.95762 11.2076 6.5 13 6.5C14.7924 6.5 16.25 7.95762 16.25 9.75C16.25 11.5424 14.7924 13 13 13Z" fill="#A6631B"/>
</svg>
