<svg width="24" height="24" viewBox="0 0 24 24" fill="none" xmlns="http://www.w3.org/2000/svg">
<path d="M23.3088 17.9916L19.84 14.5213C19.3742 14.0578 18.7504 13.8025 18.0838 13.8025C17.3901 13.8025 16.7351 14.0756 16.2399 14.5711L14.8896 15.9211C13.8404 15.3379 12.4458 14.5358 10.998 13.0879C9.55178 11.6412 8.74956 10.2508 8.16338 9.19587L9.51494 7.84531C10.5198 6.83837 10.5404 5.22291 9.56091 4.24436L6.09281 0.776165C5.62826 0.310323 5.00445 0.053772 4.33617 0.053772C3.65796 0.053772 3.01638 0.31489 2.52403 0.790164C2.22618 1.03003 0.731451 2.34952 0.174366 5.07071C-0.605612 8.87955 1.18647 12.5442 6.35998 17.7198C12.1392 23.4973 17.073 23.9463 18.4475 23.9463C18.7336 23.9463 18.9063 23.9287 18.9523 23.9233C21.6476 23.6074 22.6126 22.4104 23.3173 21.5364C24.2303 20.4037 24.2271 18.9132 23.3088 17.9916ZM22.1578 20.6017C21.4955 21.4231 20.87 22.1989 18.7791 22.4441C18.778 22.4442 18.6636 22.457 18.4475 22.457C17.2177 22.457 12.7875 22.0394 7.41309 16.6667C2.64218 11.8938 0.967649 8.62072 1.63335 5.36936C2.11925 2.99586 3.40925 1.98704 3.45939 1.94871L3.50387 1.91585L3.54289 1.87673C3.75823 1.66158 4.0399 1.54304 4.33607 1.54304C4.60573 1.54304 4.85513 1.64411 5.039 1.82858L8.5079 5.29757C8.90702 5.6963 8.88578 6.36726 8.46114 6.7928L6.93265 8.31999L6.90753 8.3463C6.50921 8.78504 6.55607 9.37796 6.77549 9.76408C7.40862 10.9066 8.27587 12.4715 9.94464 14.1407C11.6079 15.8039 13.1704 16.6705 14.3098 17.3024C14.4239 17.3665 14.6594 17.4739 14.9541 17.4739C15.3022 17.4739 15.6218 17.3266 15.8584 17.058L17.2929 15.6239C17.507 15.4097 17.7878 15.2916 18.0836 15.2916C18.3538 15.2916 18.6045 15.393 18.788 15.5755L22.2545 19.0435C22.6948 19.4854 22.5131 20.161 22.1578 20.6017Z" fill="#A6631B"/>
<path d="M14.5397 3.70253C15.8192 3.84977 17.3258 4.62478 18.3778 5.6769C19.4396 6.73874 20.2165 8.26057 20.3568 9.55395C20.3982 9.9355 20.7209 10.2183 21.0962 10.2183C21.123 10.2183 21.1502 10.2168 21.1774 10.2139C21.5862 10.1695 21.8817 9.80216 21.8373 9.39331C21.6599 7.75839 20.7378 5.93087 19.4309 4.62389C18.1362 3.32912 16.3273 2.40925 14.71 2.22309C14.3016 2.17573 13.9322 2.46922 13.8851 2.87767C13.8381 3.28613 14.1311 3.65547 14.5397 3.70253Z" fill="#A6631B"/>
<path d="M13.8441 6.82193C14.5361 6.90165 15.4938 7.41495 16.1212 8.04233C16.7539 8.67517 17.2682 9.642 17.3439 10.3415C17.3853 10.7231 17.708 11.0059 18.0833 11.0059C18.1101 11.0059 18.1372 11.0044 18.1644 11.0015C18.5733 10.9571 18.8689 10.5898 18.8245 10.1809C18.695 8.98672 17.9022 7.71737 17.1741 6.98922C16.4525 6.26752 15.1955 5.47851 14.0143 5.34239C13.6054 5.29484 13.2364 5.58842 13.1894 5.99688C13.1424 6.40543 13.4355 6.77487 13.8441 6.82193Z" fill="#A6631B"/>
</svg>
