<svg width="90" height="64" viewBox="0 0 90 64" fill="none" xmlns="http://www.w3.org/2000/svg">
<mask id="path-1-inside-1" fill="white">
<path d="M46.5094 0C28.7331 0 14.3107 14.3583 14.3107 32.0556C14.3107 49.753 28.7331 64.1113 46.5094 64.1113C64.2859 64.1113 78.7082 49.753 78.7082 32.0556C78.7082 14.3583 64.2859 0 46.5094 0ZM69.8759 26.1565C69.9877 26.4904 70.0995 26.8243 70.0995 27.1583C70.2113 27.6035 70.2113 28.16 70.3231 28.6052C70.3231 28.9391 70.4349 29.1617 70.4349 29.4957C70.5467 30.2748 70.5467 31.1652 70.5467 31.9443C70.5467 32.7235 70.5467 33.6139 70.4349 34.393C70.4349 34.727 70.3231 34.9496 70.3231 35.2835C70.2113 35.84 70.2113 36.2852 70.0995 36.7304C69.9877 37.0643 69.8759 37.3983 69.8759 37.7322C69.7641 38.1774 69.6523 38.6226 69.5405 39.0678C69.4287 39.4017 69.3169 39.847 69.0933 40.1809C68.9815 40.5148 68.8697 40.96 68.6461 41.2939C68.5343 41.6278 68.3107 42.073 68.0871 42.407C67.9753 42.7409 67.7517 43.0748 67.6399 43.4087C67.4163 43.8539 67.1927 44.1878 66.9691 44.5217C66.7455 44.8557 66.6337 45.0783 66.4101 45.4122C66.1865 45.8574 65.8511 46.1913 65.5157 46.5252C65.2921 46.7478 65.1803 46.9704 64.9567 47.193C64.6213 47.527 64.2859 47.9722 63.9504 48.3061C63.7268 48.5287 63.615 48.7513 63.3914 48.8626C63.056 49.1965 62.6088 49.5304 62.2734 49.9757C62.0498 50.087 61.938 50.3096 61.7144 50.4209C61.2672 50.7548 60.82 51.0887 60.3728 51.4226C60.1492 51.5339 60.0374 51.7565 59.8138 51.8678C59.3666 52.2017 58.9194 52.4243 58.3604 52.7583C58.1368 52.8696 58.025 52.9809 57.8014 53.0922C57.3542 53.3148 56.7952 53.6487 56.2362 53.8713C56.0126 53.9826 55.9008 54.0939 55.6772 54.2052C55.1181 54.4278 54.6709 54.6504 54.1119 54.7617C53.8883 54.873 53.6647 54.873 53.4411 54.9843C52.8821 55.207 52.3231 55.3183 51.7641 55.4296C51.5405 55.4296 51.3169 55.5409 51.0933 55.6522C50.5343 55.7635 49.9753 55.8748 49.4163 55.8748C49.1927 55.8748 48.9691 55.9861 48.6337 55.9861C48.0747 56.0974 47.5157 56.0974 47.0685 56.0974C46.8449 56.0974 46.5095 56.0974 46.2859 56.0974C46.174 56.0974 46.174 56.0974 46.0622 56.0974C32.7579 56.0974 21.9132 45.3009 21.9132 32.0556C21.9132 18.8104 32.7579 8.01391 46.0622 8.01391C46.174 8.01391 46.174 8.01391 46.2859 8.01391C46.5095 8.01391 46.7331 8.01391 46.9567 8.01391C47.5157 8.01391 48.1865 8.01391 48.7455 8.12522C48.9691 8.12522 49.1927 8.23652 49.4163 8.23652C50.3107 8.23652 50.8697 8.34783 51.4287 8.45913C51.6523 8.45913 51.7641 8.57043 51.9877 8.57043C52.5467 8.68174 53.1057 8.79304 53.7765 9.01565C54.0001 9.01565 54.1119 9.12696 54.3355 9.23826C54.8945 9.46087 55.4535 9.68348 56.0126 9.90609C56.2362 10.0174 56.348 10.0174 56.4598 10.1287C57.0188 10.3513 57.5778 10.5739 58.025 10.9078C58.2486 11.0191 58.3604 11.1304 58.4722 11.2417C59.0312 11.5757 59.4784 11.7983 59.9256 12.1322C60.1492 12.2435 60.261 12.3548 60.3728 12.4661C60.82 12.8 61.2672 13.1339 61.7144 13.4678C61.938 13.5791 62.0498 13.8017 62.1616 13.913C62.6088 14.247 62.9442 14.5809 63.3914 15.0261C63.615 15.2487 63.7268 15.36 63.9504 15.5826C64.2859 15.9165 64.6213 16.3617 64.9567 16.6957C65.1803 16.9183 65.2921 17.1409 65.5157 17.3635C65.8511 17.6974 66.0747 18.1426 66.4101 18.4765C66.6337 18.6991 66.7455 19.033 66.9691 19.2556C67.1927 19.5896 67.4163 20.0348 67.6399 20.3687C67.8635 20.7026 67.9753 21.0365 68.0871 21.3704C68.3107 21.7043 68.4225 22.1496 68.6461 22.4835C68.7579 22.8174 68.8697 23.2626 69.0933 23.5965C69.2051 23.9304 69.4287 24.2643 69.5405 24.7096C69.6523 25.2661 69.7641 25.7113 69.8759 26.1565ZM69.2051 32.0556C69.2051 44.5217 59.0312 54.6504 46.5094 54.6504C33.9877 54.6504 23.8138 44.5217 23.8138 32.0556C23.8138 19.5896 33.9877 9.46087 46.5094 9.46087C59.0312 9.34956 69.2051 19.4783 69.2051 32.0556ZM90.0001 7.01217V59.8817C90.0001 61.3287 89.1057 62.4417 87.8759 62.7757C87.6523 62.887 87.4287 62.887 87.2051 62.887C85.6399 62.887 84.1865 61.5513 84.4101 59.7704C84.9691 54.7617 87.8759 43.8539 86.4225 39.513C85.5281 37.0643 82.3977 32.6122 82.3977 25.1548C82.3977 11.353 85.6399 6.45565 87.8759 5.2313H87.9877C88.8821 5.0087 90.0001 5.78783 90.0001 7.01217ZM10.2858 5.56522C10.9567 9.79478 11.6275 17.8087 11.6275 22.0383C11.6275 27.1583 10.6213 27.047 7.60262 28.2713L8.72063 60.1043C8.72063 61.7739 7.49082 63.2209 5.9256 63.2209C5.8138 63.2209 5.702 63.2209 5.4784 63.2209C4.13678 62.9983 3.01877 61.7739 3.01877 60.2156L4.13678 28.3826C1.11815 27.1583 0.111936 27.2696 0.111936 22.1496C0.000134543 17.92 0.670942 9.79478 1.22995 5.56522H1.90076L2.01256 23.5965H3.46597L4.02498 5.56522H4.69579L5.03119 23.5965H5.36659H5.5902H6.48461L6.93181 5.56522H7.71442L8.04982 23.5965H9.50324L9.61504 5.56522H10.2858Z"/>
</mask>
<path d="M46.5094 0C28.7331 0 14.3107 14.3583 14.3107 32.0556C14.3107 49.753 28.7331 64.1113 46.5094 64.1113C64.2859 64.1113 78.7082 49.753 78.7082 32.0556C78.7082 14.3583 64.2859 0 46.5094 0ZM69.8759 26.1565C69.9877 26.4904 70.0995 26.8243 70.0995 27.1583C70.2113 27.6035 70.2113 28.16 70.3231 28.6052C70.3231 28.9391 70.4349 29.1617 70.4349 29.4957C70.5467 30.2748 70.5467 31.1652 70.5467 31.9443C70.5467 32.7235 70.5467 33.6139 70.4349 34.393C70.4349 34.727 70.3231 34.9496 70.3231 35.2835C70.2113 35.84 70.2113 36.2852 70.0995 36.7304C69.9877 37.0643 69.8759 37.3983 69.8759 37.7322C69.7641 38.1774 69.6523 38.6226 69.5405 39.0678C69.4287 39.4017 69.3169 39.847 69.0933 40.1809C68.9815 40.5148 68.8697 40.96 68.6461 41.2939C68.5343 41.6278 68.3107 42.073 68.0871 42.407C67.9753 42.7409 67.7517 43.0748 67.6399 43.4087C67.4163 43.8539 67.1927 44.1878 66.9691 44.5217C66.7455 44.8557 66.6337 45.0783 66.4101 45.4122C66.1865 45.8574 65.8511 46.1913 65.5157 46.5252C65.2921 46.7478 65.1803 46.9704 64.9567 47.193C64.6213 47.527 64.2859 47.9722 63.9504 48.3061C63.7268 48.5287 63.615 48.7513 63.3914 48.8626C63.056 49.1965 62.6088 49.5304 62.2734 49.9757C62.0498 50.087 61.938 50.3096 61.7144 50.4209C61.2672 50.7548 60.82 51.0887 60.3728 51.4226C60.1492 51.5339 60.0374 51.7565 59.8138 51.8678C59.3666 52.2017 58.9194 52.4243 58.3604 52.7583C58.1368 52.8696 58.025 52.9809 57.8014 53.0922C57.3542 53.3148 56.7952 53.6487 56.2362 53.8713C56.0126 53.9826 55.9008 54.0939 55.6772 54.2052C55.1181 54.4278 54.6709 54.6504 54.1119 54.7617C53.8883 54.873 53.6647 54.873 53.4411 54.9843C52.8821 55.207 52.3231 55.3183 51.7641 55.4296C51.5405 55.4296 51.3169 55.5409 51.0933 55.6522C50.5343 55.7635 49.9753 55.8748 49.4163 55.8748C49.1927 55.8748 48.9691 55.9861 48.6337 55.9861C48.0747 56.0974 47.5157 56.0974 47.0685 56.0974C46.8449 56.0974 46.5095 56.0974 46.2859 56.0974C46.174 56.0974 46.174 56.0974 46.0622 56.0974C32.7579 56.0974 21.9132 45.3009 21.9132 32.0556C21.9132 18.8104 32.7579 8.01391 46.0622 8.01391C46.174 8.01391 46.174 8.01391 46.2859 8.01391C46.5095 8.01391 46.7331 8.01391 46.9567 8.01391C47.5157 8.01391 48.1865 8.01391 48.7455 8.12522C48.9691 8.12522 49.1927 8.23652 49.4163 8.23652C50.3107 8.23652 50.8697 8.34783 51.4287 8.45913C51.6523 8.45913 51.7641 8.57043 51.9877 8.57043C52.5467 8.68174 53.1057 8.79304 53.7765 9.01565C54.0001 9.01565 54.1119 9.12696 54.3355 9.23826C54.8945 9.46087 55.4535 9.68348 56.0126 9.90609C56.2362 10.0174 56.348 10.0174 56.4598 10.1287C57.0188 10.3513 57.5778 10.5739 58.025 10.9078C58.2486 11.0191 58.3604 11.1304 58.4722 11.2417C59.0312 11.5757 59.4784 11.7983 59.9256 12.1322C60.1492 12.2435 60.261 12.3548 60.3728 12.4661C60.82 12.8 61.2672 13.1339 61.7144 13.4678C61.938 13.5791 62.0498 13.8017 62.1616 13.913C62.6088 14.247 62.9442 14.5809 63.3914 15.0261C63.615 15.2487 63.7268 15.36 63.9504 15.5826C64.2859 15.9165 64.6213 16.3617 64.9567 16.6957C65.1803 16.9183 65.2921 17.1409 65.5157 17.3635C65.8511 17.6974 66.0747 18.1426 66.4101 18.4765C66.6337 18.6991 66.7455 19.033 66.9691 19.2556C67.1927 19.5896 67.4163 20.0348 67.6399 20.3687C67.8635 20.7026 67.9753 21.0365 68.0871 21.3704C68.3107 21.7043 68.4225 22.1496 68.6461 22.4835C68.7579 22.8174 68.8697 23.2626 69.0933 23.5965C69.2051 23.9304 69.4287 24.2643 69.5405 24.7096C69.6523 25.2661 69.7641 25.7113 69.8759 26.1565ZM69.2051 32.0556C69.2051 44.5217 59.0312 54.6504 46.5094 54.6504C33.9877 54.6504 23.8138 44.5217 23.8138 32.0556C23.8138 19.5896 33.9877 9.46087 46.5094 9.46087C59.0312 9.34956 69.2051 19.4783 69.2051 32.0556ZM90.0001 7.01217V59.8817C90.0001 61.3287 89.1057 62.4417 87.8759 62.7757C87.6523 62.887 87.4287 62.887 87.2051 62.887C85.6399 62.887 84.1865 61.5513 84.4101 59.7704C84.9691 54.7617 87.8759 43.8539 86.4225 39.513C85.5281 37.0643 82.3977 32.6122 82.3977 25.1548C82.3977 11.353 85.6399 6.45565 87.8759 5.2313H87.9877C88.8821 5.0087 90.0001 5.78783 90.0001 7.01217ZM10.2858 5.56522C10.9567 9.79478 11.6275 17.8087 11.6275 22.0383C11.6275 27.1583 10.6213 27.047 7.60262 28.2713L8.72063 60.1043C8.72063 61.7739 7.49082 63.2209 5.9256 63.2209C5.8138 63.2209 5.702 63.2209 5.4784 63.2209C4.13678 62.9983 3.01877 61.7739 3.01877 60.2156L4.13678 28.3826C1.11815 27.1583 0.111936 27.2696 0.111936 22.1496C0.000134543 17.92 0.670942 9.79478 1.22995 5.56522H1.90076L2.01256 23.5965H3.46597L4.02498 5.56522H4.69579L5.03119 23.5965H5.36659H5.5902H6.48461L6.93181 5.56522H7.71442L8.04982 23.5965H9.50324L9.61504 5.56522H10.2858Z" stroke="#A6631B" stroke-width="4" mask="url(#path-1-inside-1)"/>
</svg>
