<?xml version="1.0" encoding="UTF-8"?>
<svg width="24px" height="24px" viewBox="0 0 24 24" version="1.1" xmlns="http://www.w3.org/2000/svg" xmlns:xlink="http://www.w3.org/1999/xlink">
    <!-- Generator: Sketch 62 (91390) - https://sketch.com -->
    <title>Icons/states</title>
    <desc>Created with Sketch.</desc>
    <g id="Icons/states" stroke="none" stroke-width="1" fill="none" fill-rule="evenodd">
        <g id="icons8-states" transform="translate(2.000000, 2.000000)" fill="#151515">
            <path d="M13,0 C11.667,0 10.425234,0.38025 9.365234,1.03125 C9.575234,1.01625 9.786,1 10,1 C14.971,1 19,5.029 19,10 C19,10.214 18.98375,10.424766 18.96875,10.634766 C19.61975,9.574766 20,8.333 20,7 C20,3.14 16.859,0 13,0 Z M10,3 C8.667,3 7.4252344,3.38025 6.3652344,4.03125 C6.5752344,4.01625 6.786,4 7,4 C11.971,4 16,8.029 16,13 C16,13.214 15.98375,13.422813 15.96875,13.632812 C16.61975,12.572813 17,11.332 17,10 C17,6.14 13.859,3 10,3 Z M7,6 C3.1458514,6 0,9.145851 0,13 C0,16.854149 3.1458514,20 7,20 C10.854149,20 14,16.854149 14,13 C14,9.145851 10.854149,6 7,6 Z M7,8 C9.773268,8 12,10.226732 12,13 C12,15.773268 9.773268,18 7,18 C4.2267316,18 2,15.773268 2,13 C2,10.226732 4.2267316,8 7,8 Z" id="Shape"></path>
        </g>
    </g>
</svg>