<svg width="24" height="24" viewBox="0 0 24 24" fill="none" xmlns="http://www.w3.org/2000/svg">
<path d="M12 24C8.79469 24 5.78123 22.7518 3.51469 20.4853C1.24823 18.2188 0 15.2053 0 12C0 8.79469 1.24823 5.78123 3.51469 3.51469C5.78123 1.24823 8.79469 0 12 0C15.2053 0 18.2188 1.24823 20.4853 3.51469C22.7518 5.78123 24 8.79469 24 12C24 15.2053 22.7518 18.2188 20.4853 20.4853C18.2188 22.7518 15.2053 24 12 24ZM12 1.40625C9.1703 1.40625 6.51 2.50819 4.50909 4.50909C2.50819 6.51 1.40625 9.1703 1.40625 12C1.40625 14.8297 2.50819 17.49 4.50909 19.4909C6.51 21.4918 9.1703 22.5938 12 22.5938C14.8297 22.5938 17.49 21.4918 19.4909 19.4909C21.4918 17.49 22.5938 14.8297 22.5938 12C22.5938 9.1703 21.4918 6.51 19.4909 4.50909C17.49 2.50819 14.8297 1.40625 12 1.40625Z" fill="#A6631B"/>
<path d="M11.2969 2.81421H12.7031V4.69071H11.2969V2.81421Z" fill="#A6631B"/>
<path d="M16.6689 6.33545L17.9956 5.00877L18.9899 6.00298L17.6632 7.32967L16.6689 6.33545Z" fill="#A6631B"/>
<path d="M19.3091 11.2969H21.1856V12.7031H19.3091V11.2969Z" fill="#A6631B"/>
<path d="M16.6675 17.6656L17.6617 16.6714L18.9884 17.9981L17.9942 18.9923L16.6675 17.6656Z" fill="#A6631B"/>
<path d="M11.2969 19.3092H12.7031V21.1857H11.2969V19.3092Z" fill="#A6631B"/>
<path d="M5.00488 17.9971L6.33157 16.6704L7.32579 17.6646L5.9991 18.9913L5.00488 17.9971Z" fill="#A6631B"/>
<path d="M2.81445 11.2969H4.69096V12.7031H2.81445V11.2969Z" fill="#A6631B"/>
<path d="M5.00635 6.00183L6.00057 5.00761L7.32726 6.3343L6.33304 7.32852L5.00635 6.00183Z" fill="#A6631B"/>
<path d="M16.9637 12.7032H11.2969V7.03638H12.7031V11.2969H16.9637V12.7032Z" fill="#A6631B"/>
</svg>
